####
#
# OBJ File Generated by Meshlab
#
####
# Object pad.obj
#
# Vertices: 8
# Faces: 12
#
####
vn -1.570796 -1.570727 -1.570866
v -10.000000 -23.901751 13.514420
vn 1.570796 -1.570866 1.570727
v 10.000000 -23.903299 48.514420
vn -1.570796 -1.570866 1.570727
v -10.000000 -23.903299 48.514420
vn 1.570796 -1.570727 -1.570866
v 10.000000 -23.901751 13.514420
vn -1.570796 1.570866 -1.570727
v -10.000000 -18.901751 13.514640
vn -1.570796 1.570727 1.570866
v -10.000000 -18.903299 48.514641
vn 1.570796 1.570866 -1.570727
v 10.000000 -18.901751 13.514640
vn 1.570796 1.570727 1.570866
v 10.000000 -18.903299 48.514641
# 8 vertices, 0 vertices normals

f 1//1 2//2 3//3
f 4//4 2//2 1//1
f 5//5 6//6 7//7
f 6//6 8//8 7//7
f 3//3 6//6 5//5
f 3//3 5//5 1//1
f 6//6 3//3 2//2
f 6//6 2//2 8//8
f 8//8 2//2 7//7
f 2//2 4//4 7//7
f 1//1 5//5 4//4
f 5//5 7//7 4//4
# 12 faces, 0 coords texture

# End of File
